<svg width="65" height="66" viewBox="0 0 65 66" fill="none" xmlns="http://www.w3.org/2000/svg">
<g clip-path="url(#clip0_33_185)">
<path d="M52.3928 34.0759C53.5843 36.3854 54.5144 38.2506 56.2629 41.634C50.55 44.4172 27.329 55.9728 22.3445 58.5529C19.7344 53.4552 17.1221 48.0688 14.6765 42.7536C10.384 33.4203 6.0794 24.1137 1.99365 14.7061C12.7846 9.60957 31.4611 2.19097 35.2978 0.6521C37.403 4.86706 42.387 14.7847 45.694 21.3786" fill="white"/>
<path d="M44.4867 35.074C43.631 35.5586 42.7306 36.0549 41.8145 36.5424C42.6074 33.6295 43.4411 30.7087 44.2473 28.605C44.2711 28.6221 44.2842 28.6303 44.2842 28.6303C45.0453 29.1053 48.5454 32.0115 49.0647 32.3318C47.931 33.0584 46.3113 34.0404 44.4867 35.074Z" fill="white"/>
<path d="M60.0895 10.4035C59.9239 10.4432 59.7709 10.525 59.6449 10.6411C56.6939 14.0604 46.375 25.9262 44.2159 28.592C44.7783 28.8911 48.1672 31.7004 48.9624 32.2631L49.032 32.3123C54.0516 26.5362 58.9526 20.7747 64.0346 14.9086C64.8608 13.8407 64.0692 12.5292 62.9417 11.5342C61.8712 10.5876 60.786 10.2232 60.0895 10.4035Z" fill="#FF4E4E"/>
<path d="M42.0057 36.4395L41.8145 36.5415C42.2028 35.115 42.601 33.6862 43.0009 32.3538C43.7542 32.8533 45.161 33.931 45.694 34.3813C44.5558 35.0432 43.2987 35.7494 42.0057 36.4395Z" fill="#211715"/>
<path d="M51.8379 34.4051C53.1352 36.9208 54.4089 39.4487 55.708 41.9632L55.9386 41.0702C54.246 41.8953 52.5565 42.7268 50.87 43.5649C48.3668 44.8028 45.8649 46.0437 43.3643 47.2877C40.6013 48.6618 37.8396 50.0378 35.079 51.4156C32.5653 52.6709 30.053 53.929 27.5422 55.19C25.83 56.0507 24.1174 56.9111 22.4125 57.7873C22.2816 57.8544 22.1508 57.9217 22.0201 57.9893L22.8996 58.2235C20.0691 52.6937 17.3798 47.0919 14.7817 41.4449C12.1304 35.6849 9.47634 29.9264 6.8732 24.1437C5.41201 20.8967 3.97047 17.641 2.54856 14.3767L2.31798 15.2698C7.18145 12.9738 12.129 10.8604 17.0849 8.78063C21.727 6.83287 26.3835 4.92299 31.0545 3.05101C32.525 2.45928 33.9964 1.86946 35.4686 1.28154L34.7429 0.982413C37.4087 6.31991 40.0834 11.6529 42.7671 16.9813C43.558 18.5571 44.3486 20.1328 45.1388 21.7086C45.5137 22.4575 46.6238 21.7975 46.2489 21.05C43.3697 15.3082 40.4892 9.56733 37.6074 3.82737C37.0219 2.65951 36.4371 1.49129 35.8529 0.322704C35.7813 0.198611 35.6714 0.102011 35.5401 0.047918C35.4089 -0.0061751 35.2637 -0.0147316 35.1272 0.0235782C31.8072 1.35442 28.4897 2.69187 25.1747 4.03595C19.9944 6.14968 14.8267 8.29768 9.69514 10.5289C7.00523 11.6982 4.32389 12.8901 1.67014 14.1426C1.33109 14.3025 1.31073 14.7387 1.43955 15.0356C3.95699 20.8278 6.55477 26.5849 9.18175 32.3278C11.8087 38.0708 14.4119 43.8197 17.1438 49.508C18.6537 52.6523 20.2027 55.777 21.7906 58.8821C21.8788 59.0292 22.0198 59.1357 22.1838 59.1794C22.3479 59.2231 22.5222 59.2004 22.6701 59.1162C24.2392 58.3042 25.818 57.5118 27.3957 56.7175C29.8365 55.4885 32.2794 54.2641 34.7244 53.0442C37.4812 51.6664 40.2397 50.2915 42.9998 48.9193C45.5629 47.6443 48.1274 46.3716 50.6932 45.1013C52.509 44.2025 54.3263 43.3068 56.1451 42.4141L56.5891 42.1966C56.7343 42.1073 56.8396 41.9642 56.8827 41.7975C56.9257 41.6308 56.9031 41.4536 56.8197 41.3035C55.5203 38.7892 54.2468 36.2611 52.9493 33.7457C52.5655 33.0011 51.4557 33.6603 51.8395 34.4043L51.8379 34.4051Z" fill="#211715"/>
<path d="M54.5822 46.0836C52.8896 46.9084 51.2001 47.7399 49.5138 48.578C47.0103 49.8159 44.5083 51.0568 42.0078 52.3008C39.2449 53.6744 36.4831 55.0503 33.7225 56.4285C31.2088 57.6837 28.6966 58.9418 26.186 60.2029C24.4736 61.0638 22.7609 61.9239 21.056 62.8001C20.9253 62.8672 20.7946 62.9346 20.6637 63.0024L21.5432 63.2366C18.7127 57.706 16.0233 52.1047 13.4252 46.4583C10.7739 40.698 8.11987 34.9395 5.517 29.1569C4.05564 25.9103 2.614 22.6547 1.1921 19.3898C1.10528 19.2413 0.964346 19.1334 0.799792 19.0896C0.635238 19.0458 0.460307 19.0695 0.312868 19.1557C0.168796 19.246 0.0644737 19.3891 0.0215402 19.5554C-0.0213933 19.7216 0.00035784 19.8983 0.0822815 20.0487C2.59972 25.8423 5.1975 31.5983 7.82421 37.3409C10.4509 43.0836 13.0543 48.8323 15.7863 54.5211C17.2966 57.6654 18.8455 60.7901 20.4331 63.8952C20.5213 64.0423 20.6623 64.1488 20.8263 64.1925C20.9903 64.2362 21.1647 64.2135 21.3126 64.1293C22.8817 63.3176 24.4605 62.5249 26.0381 61.7306C28.479 60.502 30.9219 59.2776 33.3668 58.0573C36.1239 56.6795 38.8824 55.3046 41.6423 53.9324C44.2058 52.6576 46.7702 51.3849 49.3357 50.1144C51.1515 49.2156 52.9688 48.3199 54.7878 47.4272L55.2316 47.2097C55.3776 47.1212 55.4835 46.9781 55.5267 46.8112C55.5698 46.6442 55.5466 46.4667 55.4622 46.3169C55.3737 46.1702 55.2327 46.0639 55.0688 46.0203C54.9049 45.9767 54.7307 45.999 54.5827 46.0828L54.5822 46.0836Z" fill="#211715"/>
<path d="M44.7387 28.9695C46.1546 27.2335 47.6265 25.5432 49.0855 23.8452C51.1556 21.4363 53.2311 19.032 55.3122 16.6325C56.8982 14.8005 58.4528 12.9342 60.0736 11.1324C60.0878 11.1169 60.1355 11.0674 60.0618 11.1283C60.0856 11.1092 60.1113 11.0927 60.1384 11.0791C60.2536 11.0209 60.1467 11.0592 60.2456 11.0366C60.3745 11.004 60.5086 10.9981 60.6398 11.0192C61.0492 11.0913 61.4397 11.2474 61.7876 11.478C62.5568 11.9509 63.485 12.7495 63.7025 13.6806C63.801 14.103 63.6275 14.3877 63.3594 14.6985C62.935 15.188 62.511 15.6784 62.0873 16.1696C61.2587 17.1288 60.4312 18.0889 59.6047 19.05C56.3099 22.879 53.014 26.707 49.7171 30.5342C49.3121 31.0014 48.9068 31.4684 48.5012 31.9352C47.9556 32.5628 48.8614 33.4896 49.4101 32.8582C52.8537 28.8975 56.2806 24.9222 59.6909 20.932C60.5594 19.922 61.4284 18.9127 62.2981 17.904C62.7352 17.3975 63.1726 16.891 63.6104 16.3845C63.9984 15.9355 64.5081 15.4822 64.7732 14.9432C65.2855 13.9034 64.8868 12.8154 64.2258 11.9555C63.5214 11.0235 62.5742 10.3102 61.4914 9.89615C60.7228 9.6196 59.7362 9.58724 59.1387 10.2393C58.8221 10.5847 58.5246 10.9502 58.218 11.3045C57.3574 12.2987 56.4965 13.2926 55.6354 14.2862C53.4865 16.7674 51.34 19.251 49.1959 21.7372C47.5127 23.6921 45.8214 25.6424 44.1741 27.6283C44.0588 27.7672 43.944 27.9066 43.8297 28.0466C43.7135 28.1712 43.6487 28.3364 43.6487 28.5081C43.6487 28.6797 43.7135 28.8449 43.8297 28.9695C43.9509 29.0907 44.1141 29.1585 44.2842 29.1585C44.4543 29.1585 44.6175 29.0907 44.7387 28.9695Z" fill="#211715"/>
<path d="M43.9599 29.1929C44.1886 29.337 44.4042 29.5043 44.6192 29.6683C44.7799 29.791 44.9406 29.9147 45.1013 30.0394L45.1774 30.099L45.2577 30.1615L45.5566 30.3976C46.2797 30.9708 46.9982 31.5509 47.7234 32.1219C48.0258 32.3601 48.3263 32.6027 48.6402 32.8254C48.7877 32.9114 48.9625 32.935 49.127 32.8912C49.2915 32.8474 49.4324 32.7397 49.5194 32.5913C49.602 32.441 49.6242 32.2642 49.5812 32.0977C49.5382 31.9313 49.4334 31.7882 49.2888 31.6985C49.19 31.6281 49.0928 31.5549 48.9964 31.481C48.938 31.4364 48.8797 31.3915 48.8215 31.3464L48.7259 31.2721L48.6557 31.2177C48.7272 31.2738 48.6021 31.1753 48.5778 31.1563L48.4658 31.0676C48.3807 31.0005 48.2955 30.9317 48.2103 30.8653L47.6616 30.428C46.9141 29.8298 46.1683 29.2315 45.4101 28.6485C45.1492 28.4481 44.8889 28.2406 44.6109 28.066C44.538 28.0228 44.4575 27.9945 44.3738 27.9829C44.2902 27.9712 44.2051 27.9764 44.1234 27.9981C44.0418 28.0199 43.9651 28.0578 43.8978 28.1096C43.8306 28.1614 43.774 28.2262 43.7314 28.3002C43.6888 28.3742 43.661 28.456 43.6495 28.5409C43.638 28.6259 43.6432 28.7122 43.6646 28.7952C43.686 28.8781 43.7233 28.9559 43.7743 29.0242C43.8253 29.0925 43.8891 29.1499 43.962 29.1932L43.9599 29.1929Z" fill="#211715"/>
<path d="M43.6645 28.3344C42.6581 30.945 41.9302 33.6684 41.1945 36.3679C41.1642 36.4924 41.1703 36.6232 41.2121 36.7442C41.2538 36.8653 41.3294 36.9714 41.4295 37.0496C41.5297 37.1277 41.6501 37.1746 41.7761 37.1844C41.902 37.1942 42.0281 37.1665 42.1388 37.1048C44.5668 35.8134 46.9594 34.4442 49.2811 32.9614C49.9795 32.5151 49.3346 31.3841 48.6322 31.8345C46.3118 33.317 43.9187 34.6862 41.4899 35.9779L42.4342 36.7148C43.1699 34.0154 43.8978 31.2928 44.9042 28.6814C44.9482 28.5145 44.9257 28.3368 44.8417 28.1866C44.7576 28.0364 44.6188 27.9258 44.4551 27.8787C44.2909 27.8366 44.117 27.8605 43.9697 27.9454C43.8224 28.0303 43.7131 28.1697 43.6645 28.3344Z" fill="#211715"/>
<path d="M14.1202 25.1683C16.9411 23.7195 19.7847 22.3166 22.6367 20.9295C25.6301 19.4728 28.6357 18.0422 31.6534 16.6375C32.9617 16.0322 34.2731 15.4329 35.5953 14.8599C35.7418 14.7719 35.8482 14.6287 35.8914 14.4615C35.9345 14.2943 35.911 14.1166 35.8259 13.9669C35.7368 13.8209 35.5959 13.7151 35.4322 13.6716C35.2685 13.628 35.0946 13.6499 34.9464 13.7328C32.3524 14.8569 29.7926 16.0651 27.238 17.2779C24.1453 18.7464 21.0654 20.2412 17.9984 21.7624C16.4855 22.5126 14.9768 23.2722 13.4724 24.0412C12.734 24.4205 13.384 25.5469 14.1213 25.1683H14.1202Z" fill="#211715"/>
<path d="M18.8479 34.9999C23.339 32.5759 27.9107 30.3138 32.5632 28.2136C33.824 27.6407 35.0902 27.0803 36.3618 26.5325C36.5082 26.4444 36.6144 26.3013 36.6576 26.1342C36.7008 25.9671 36.6773 25.7894 36.5924 25.6397C36.5033 25.4937 36.3623 25.388 36.1987 25.3444C36.035 25.3009 35.8611 25.3228 35.7129 25.4056C31.0742 27.4019 26.5052 29.5572 22.006 31.8713C20.7305 32.5251 19.4616 33.1922 18.1993 33.8728C17.4684 34.2671 18.1171 35.3942 18.8479 34.9999Z" fill="#211715"/>
<path d="M23.4227 44.5945C27.3669 42.4662 31.3802 40.476 35.4627 38.6239C36.5567 38.1274 37.6559 37.643 38.7603 37.1707C38.9216 37.12 39.0579 37.0087 39.1413 36.8596C39.2247 36.7105 39.2491 36.5347 39.2094 36.368C39.1632 36.2017 39.0542 36.0606 38.9062 35.9753C38.7581 35.89 38.5829 35.8673 38.4186 35.9122C34.26 37.6817 30.1724 39.6249 26.1488 41.6911C25.018 42.2712 23.8932 42.8633 22.7743 43.4673C22.0435 43.8616 22.6924 44.9888 23.4232 44.5945H23.4227Z" fill="#211715"/>
</g>
<defs>
<clipPath id="clip0_33_185">
<rect width="65" height="66" fill="white"/>
</clipPath>
</defs>
</svg>
